<?xml version="1.0" encoding="UTF-8"?><svg id="Layer_1" xmlns="http://www.w3.org/2000/svg" viewBox="0 0 1920 1920"><defs><style>.cls-1{fill:#00a705;}.cls-2{fill:#fff;}.cls-3{fill:#4fdb67;}</style></defs><path class="cls-1" d="m1329.03,695.15c11.92-.22,23.85-.45,35.77-.67,1.14,2.76,2.17.93,3.21-.08,14.55-.28,29.1-.57,43.64-.85,1.47.63,2.92.87,4.35-.11,1.96-.02,3.93-.04,5.89-.06.78.81,1.47.61,2.1-.19,7.29-.09,14.59-.18,21.88-.27.74-.04,1.48-.09,2.22-.13,4.93-.11,9.85-.22,14.78-.33.37.64.75.66,1.14.02,2.25.12,4.51.25,6.76.37.41.04.82.09,1.22.13,9.08,2.23,11.66,5.86,12.09,14.76.42,8.63-2.4,16.27-5.36,24.07-3.71,9.78-6.84,19.79-10.42,29.62-5.69,15.66-11.99,31.11-17.22,46.93-6.65,20.12-13.74,40.07-21.2,59.88-4.89,12.99-8.31,26.65-16.2,38.42-7.85,11.71-18.74,18-32.72,19.11-3.09-1.18-6.22-.83-9.35-.22-1.26-.18-2.63.17-3.73-.77-.68-1.49-1.87-.91-2.96-.73-10.76-.48-20.49-4.51-30.21-8.66-28.27-12.05-56.89-23.15-86.24-32.35-17.97-5.63-36.43-9.38-54.61-14.18-9.25-2.44-18.64-4.02-27.99-5.91-10.7-2.16-21.5-3.53-32.28-5.11-6.67-.98-13.58-.78-20.07-3.45-2.31-.95-5.26-.39-7.91-.44-8.21-.14-16.4-.2-24.37-2.74-3.7-1.18-7.41,1.53-11.23.6-.38-.25-.75-.5-1.13-.75-.28-.15-.58-.27-.89-.33-2.39-1.14-4.84-.99-7.31-.3-5.24-.17-10.48-.34-15.71-.5-3.66-1.4-7.36-1.09-11.08-.34-5.71.12-11.42.24-17.13.36-.2.15-.39.3-.59.45.3.16.6.32.9.49,11.65,4.67,23.3,9.34,34.96,14,17.85,7.14,35.71,14.25,53.55,21.4,14.89,5.97,29.76,11.97,44.63,17.97,11.2,4.52,22.39,9.06,33.59,13.57,21.73,8.76,43.45,17.52,65.19,26.25,18.2,7.31,36.53,14.27,54.57,21.96,8.46,3.61,17.26,6.23,25.32,11.16,9.53,5.82,8.28,19.5,2.76,26.88-5.97,7.97-12.78,15.17-19.44,22.52-10.48,11.55-20.93,23.13-31.42,34.67-13.31,14.64-26.66,29.24-39.96,43.89-9.38,10.33-18.69,20.72-28.06,31.06-13.76,15.18-27.55,30.34-41.33,45.51-7.73,8.52-15.44,17.07-23.17,25.59-15.25,16.81-30.51,33.61-45.77,50.41-10.01,11.02-19.99,22.08-30.08,33.04-6.25,6.79-13.31,12.17-22.63,14.46-4.5,1.11-8.28.1-12.18-1.27-10.57-3.69-19.32-10.75-29.03-16.03-11.87-6.46-23.28-13.85-35.42-19.74-19.6-9.51-39.43-18.55-59.8-26.45-9.58-3.71-19.33-7.18-28.94-10.76-9.19-3.42-18.98-5.87-28.58-8.48-20.34-5.53-41.05-9.33-61.68-13.52-6.98-1.42-14.11-2.05-21.02-3.39-5.55-1.08-11-1.39-16.5-1.59-5.83-.21-10.75,2.04-13.59,7.58-3.06,5.98-2.54,11.5.75,17.53,6.25,11.48,17.25,13.85,28.4,16.46,9.62,2.25,19.08,5.12,28.55,7.84,16.06,4.62,30.7,11.73,44.88,19.99,12.23,7.13,23.33,15.85,34.07,25.26,23.35,20.45,41.32,44.66,54.49,72.56,3.53,7.48,6.84,15.08,9.23,23.05.83,2.78.86,4.63-2.63,5.16-10.41,1.59-20.5,4.57-30.42,7.96-7.64,2.61-14.97,6.15-22.36,9.45-14.83,6.63-29.8,13.38-45.62,16.66-21.65,4.48-42.47,2.4-58.89-15.32-10.7-11.54-18.52-24.71-24.4-39.25-7.1-17.55-12.54-35.85-23.36-51.75-9.19-13.52-19.91-25.16-36.08-30.19-4.53-1.41-9.34-1.85-14.15-2.03-3.41-.13-3.94,1.54-3.44,4.3.95,5.3,1.93,10.6,2.8,15.92.47,2.85-.55,5.53.46,8.71,1.92,6.04,2.53,12.56,3.14,18.93,1.18,12.27,3.95,24.3,5.28,36.57.9,8.25,2.27,16.66,3.74,24.96,1.52,8.59,3.52,17.16,3.54,25.99.02,11.19-5.05,16.27-16.82,19.01-2.79-.59-5.57-1.24-8.3.23-.96-.05-1.91-.1-2.87-.15-.64-.64-1.36-.68-2.14-.3-8.34-.41-16.57-2.27-24.43-4.51-7.65-2.18-15.53-2.84-23.1-5.19-8.02-2.49-16.57-3.52-24.31-6.62-7.34-2.95-14.77-5.93-22.01-9.22-7.67-3.49-15.22-7.07-22.21-11.64-7.75-5.06-15.43-10.33-21.81-17.17-.72-1.22-.78-2.17.24-3.5,6.6-8.63,13.06-17.38,18.49-26.79,1.5-2.61,4.72-2.73,5.87-6.21,2.22-6.72,7.26-12.09,11.53-17.69,5.7-7.48,10.76-15.39,16.14-23.07,6.23-8.89,11.87-18.3,18.86-26.54,6.31-7.43,12.21-15.2,17.48-23.22,9.27-14.09,19.59-27.42,29.19-41.25,8.88-12.78,17.96-25.54,27.88-37.66,9.93-12.13,18.94-25.03,28.12-37.76,6.51-9.03,13.49-17.69,19.96-26.76,8.72-12.21,18.45-23.7,27.05-36.09,7.22-10.4,15.83-19.84,23.71-29.8,9.2-11.65,17.93-23.7,28.1-34.64,8.45-9.09,15.91-19.18,24.13-28.45,9.55-10.76,18.88-21.75,28.75-32.25,8.47-9.01,16.48-18.62,25.17-27.28,9.91-9.87,19.1-20.45,29.38-30.01,10.5-9.77,19.02-21.66,29.54-31.41,13.37-12.39,26-25.53,39.39-37.88,18.74-17.29,36.62-35.5,55.61-52.54,32.04-28.76,63.8-57.83,96.59-85.73,22.27-18.95,44.45-38.01,66.92-56.71,25.28-21.04,50.68-41.95,76.7-62.07,1.04-.81,2.18-1.6,2.33-3.1,1.88-.4,4.14-.21,4.67-2.8.07-.34-.36-1.12-.55-1.12-2.07.04-2.93,1.87-4.25,3.03-.12.1-.16.29-.24.43-.87.45-1.82.79-2.59,1.37-21.52,16.09-42.91,32.35-64.54,48.28-22.87,16.84-45.25,34.31-68.16,51.09-19.54,14.31-38.26,29.75-57.43,44.58-23.13,17.9-45.84,36.31-68.2,55.16-21.42,18.06-42.48,36.55-63.01,55.59-14.47,13.41-28.6,27.21-42.76,40.97-16.21,15.76-31.99,31.91-47.83,48.02-28.1,28.57-55.22,58.05-82.3,87.58-12.21,13.32-24.09,26.94-36.07,40.46-8,9.03-15.91,18.14-23.85,27.22-10.7,12.25-21.46,24.44-32.05,36.78-6.35,7.4-12.35,15.13-18.67,22.51-6.4,7.48-13.12,14.8-19.52,22.3-13.78,16.13-27.07,32.68-40.31,49.26-11.69,14.64-23.46,29.24-34.41,44.43-7.36,10.21-14.77,20.42-22.22,30.55-14.56,19.8-28.53,40-42.72,60.05-3.89,5.5-6.68,11.9-12.33,16.06-6.16-3.99-12.17-8.18-17.89-12.79-25.09-20.21-45.92-44.05-62.26-71.88-9.59-16.32-17.04-33.51-22.98-51.44-5.82-17.58-9.59-35.54-10.74-54.04-.02-.38-.05-.75-.07-1.13-.16-2.2-.32-4.39-.48-6.59.42-.51.32-.95-.15-1.36,0-2.3-.01-4.6-.02-6.89.71-3.7,1.23-7.39.09-11.11.06-1.63.12-3.26.18-4.88.68-.72.62-1.5.17-2.3.71-13.41,2.58-26.59,5.54-39.75,4.87-21.66,12.16-42.48,22.52-61.89,14.73-27.58,32.83-52.86,57.33-72.98,7.6-6.24,15.07-12.44,23.44-17.83,18.75-12.07,32.93-4.42,43.49,6.11,11.74,11.71,23.23,23.65,34.81,35.51,14.74,15.11,29.46,30.25,44.19,45.37,12.16,12.49,24.31,24.98,36.48,37.46,7.2,7.38,14.55,14.63,21.55,22.19,2.22,2.39,3.24,1.81,3.83-.66.74-3.08,4.23-5.53,2.23-9.26,2.6-1.13,2.04-3.21,1.58-5.26-.01-2.51-.02-5.03-.03-7.54.53-1.18.62-2.3-.42-3.28-2.5-3.27-2.1-7.48-2.86-11.11-2.11-10.08-6.78-18.89-11.7-27.58-8.9-15.71-18.61-30.96-27.33-46.76-7.01-12.71-13.18-25.9-19.51-38.98-5.42-11.19-11.3-22.25-15.6-33.88-6.74-18.18-13.9-36.21-19.85-54.69-4.62-14.34-9.13-28.73-11.99-43.5-1.27-6.57-1.72-13.53-.79-20.36.49-.36.53-.79.19-1.27,1.07-18.06,10.27-32.03,22.58-44.31,11.12-11.09,24.02-19.95,36.92-28.79,41.96-28.75,86.54-52.61,133.65-71.78,1.22.27,2.26.07,2.89-1.14.24-.18.5-.29.79-.35.94.42,1.66.24,2.06-.77.46-.07.92-.13,1.38-.2.17,10.22.31,20.43,1.85,30.57,1.23,19.95,3.4,39.83,8.27,59.22,6.33,25.2,15.23,49.44,32.33,69.66,10.17,12.03,21.63,22.63,36.89,28.11,4.66,1.67,12.95-1.62,14.28-6.23,1.79-6.21,2.48-12.36,1.62-19.12-2.29-17.91-6.78-35.28-11.74-52.49-7.09-24.62-14.26-49.22-24.22-72.97-8.37-19.95-16.29-40.07-26.17-59.32-6.6-12.86-11.94-25.94-11.17-40.73.46-8.78,4.8-15.6,11.35-21.16,6.31-5.35,13.84-8.56,21.23-12.01,34.81-16.21,69.95-31.67,105.4-46.41,17.3-7.19,34.57-14.52,52.26-20.83,7.63-2.72,15.21-5.96,22.82-8.87,12.97-4.97,25.64-10.76,39.17-14.39,8.78-2.36,17.07-6.48,25.64-9.64,9.52-3.51,19.14-6.72,28.64-10.29,4.3-1.61,5.9.25,6.48,4.1,1.5,10.07,4.6,19.76,6.83,29.64,2.07,9.18,4.81,18.17,7.5,27.1,2.14,7.11,4.81,14.23,7.55,21.24,2.22,5.7,4.03,11.55,6.12,17.3,1.04,2.86,2.21,3.67,4.44.57,7.61-10.64,11.97-22.59,14.53-35.25,3.13-15.47,4.49-31.29,8.78-46.54,10.73-38.18,37.65-59.78,73.93-71.48,14.49-4.67,29.36-7.67,44.55-9.4,11.48-1.31,22.93-2.74,34.48-3.2,4.78.52,9.56.85,14.27-.57,33.3-.22,66.61-.45,99.91-.67.45.63.81.47,1.12-.13,11.29-.02,22.58-.04,33.87-.06.41.51.78.4,1.12-.08,20.66-.1,41.32-.18,61.97-.34,2.71-.02,3.87.34,3.03,3.6-4.14,16.18-8.44,32.33-11.89,48.67-2.66,12.58-6.41,24.92-8.74,37.52-2.07,11.2-5.24,22.1-7.67,33.18-2.19,10.01-4.79,19.96-7.12,29.96-3.02,12.99-5.82,26.02-8.92,38.99-4.32,18.1-8.59,36.22-13.36,54.21-2.88,10.87-10.07,18.68-20.53,22.73-22.38,8.65-44.9,16.93-67.41,25.25-25.02,9.25-50.08,18.37-75.13,27.54-10.61,3.88-21.21,7.76-31.63,12.18,11.69,0,23.39,0,35.08,0,1.48.59,2.94.73,4.33-.26,2.63-.03,5.25-.06,7.88-.08.45.52.81.31,1.14-.13Zm-36.09-129.15c-1.17.1-1.94.67-2.15,1.87-2.43.17-3.85,1.42-5.09,4.25,3.02-.85,4.22-2.38,5.37-3.98,1.22-.15,2.04-.67,1.95-2.06.18-.17.36-.34.54-.5l-.62.42Zm-324.13,138.87c1.1-.4,1.27-1.13.76-2.11.04-4.84.08-9.68.11-14.52.38-.85.42-1.64-.42-2.28-.69-.93-1.06-1.91-1.32-3.09-1.33-6.07-2.14-12.26-4.36-18.14-10.07-26.62-24.72-50.7-40.82-73.98-2.86-4.14-5.88-8.18-8.82-12.27-.89,4.34-1.2,8.3-.83,12.2,1.16,12.23,2.57,24.43,3.91,36.64.99,8.94,1.35,18.01,3.2,26.77,2.8,13.32,4.64,26.87,8.81,39.88,2.73,8.49,5.66,16.91,11.04,24.19,2.41,3.26,5.38,6.56,9.45,6.69,9.55.3,19.63-12.72,19.28-19.98Zm212.22,110.5c.63-.01,1.26-.03,1.89-.04.49.78.8.36,1.09-.17,3.99-.06,8.05.33,11.96-.28,11.34-1.78,22.81-2.23,34.19-3.73,10.21-1.35,20.41-2.88,30.51-4.66,14.69-2.6,29.27-6,43.4-11.19,9.15-3.36,17.22-7.79,23.57-15.27.68-.8,1.45-1.46,1.23-2.41-1.12-4.81-1.05-9.93-5.56-13.61-5.23-4.27-10.84-7.62-17.2-9.72-13-4.29-26.48-5.41-40.05-5.99-16.77-.72-33.39,1.43-50.01,2.92-5.41.49-11.26-.82-16.04.88-14.11,5.01-29.07,5.07-43.38,8.8-12.44,3.24-25.73,3.2-36.07,12.87-7.75,7.25-15.69,14.1-19.97,24.12-1.32,3.09-1.31,5.62,1.25,8.51,3.78,4.28,8.41,6.28,13.72,7.44,11.19,2.46,22.63,2.36,33.95,2.97,8.37.45,16.83-.67,25.25-1.09.48-.02.96-.04,1.44-.07,1.15-.05,2.31-.1,3.46-.16.5.42.95.37,1.35-.15Zm-153.74,299.13c6.12.34,12.24.59,18.36-.14.86.65,1.64.5,2.37-.23,2.61-.93,5.34-1.62,7.81-2.84,2.88-1.41,5.86-3.53,6.04-6.84.25-4.58.7-9.25-.81-13.84-2.87-8.73-8.12-15.9-14.2-22.56-14.25-15.6-33.29-22.47-52.83-27.65-18.76-4.98-38.12-6.86-57.57-7.47-18.57-.58-37.05.7-55.52,2.31-4.9.43-9.99.92-14.54,2.6-14.31,5.31-28.05,11.82-39.06,22.88-5.47,5.49-10.89,10.91-13.47,18.61-1.43,4.24-1.5,8.4,1.02,11.61,2.5,3.18,6.41,3.69,10.75,2.38,3.2-.97,6.45-1.91,8.93-3.9,8.73-7.04,18.78-7.57,29.23-6.8.71.51,1.48.52,2.27.22,13.53.9,26.73,3.86,39.9,6.78,13.66,3.03,27.22,6.78,40.82,9.81,11.1,2.47,22.32,5.03,33.56,7.19,14.16,2.72,28.13,6.43,42.58,7.49,1.37,1.1,2.84,1.03,4.37.38Zm-544.89-18.71c-1.04,7.87-.26,14.79.73,21.63,1.46,10.05,2.92,20.15,5.39,29.97,1.03,4.09,1.23,8.48,2.99,12.29,2.12,4.59,3.63,9.4,5.58,14.03,5.19,12.33,10.86,24.42,20.03,34.42,5.15,5.61,11.82,5.67,15.84.72,4.48-5.52,5.39-12.5,4.57-18.49-1.18-8.7-3.43-17.5-7.21-25.7-6.83-14.85-15.46-28.6-25.31-41.59-7-9.23-14.12-18.37-22.62-27.27Z"/><path class="cls-3" d="m1280.22,576.35c-.16,1.5-1.29,2.29-2.34,3.09-26.03,20.12-51.42,41.04-76.7,62.07-22.47,18.7-44.65,37.76-66.92,56.71-32.79,27.91-64.55,56.98-96.59,85.73-18.99,17.04-36.86,35.25-55.61,52.54-13.39,12.35-26.02,25.49-39.39,37.88-10.52,9.75-19.04,21.65-29.54,31.41-10.28,9.56-19.46,20.14-29.38,30.01-8.7,8.66-16.7,18.26-25.17,27.28-9.87,10.5-19.2,21.49-28.75,32.25-8.23,9.27-15.68,19.36-24.13,28.45-10.17,10.93-18.89,22.99-28.1,34.64-7.87,9.97-16.49,19.41-23.71,29.8-8.6,12.39-18.34,23.87-27.05,36.09-6.47,9.07-13.45,17.74-19.96,26.76-9.18,12.73-18.19,25.63-28.12,37.76-9.92,12.12-19,24.88-27.88,37.66-9.6,13.83-19.92,27.16-29.19,41.25-5.27,8.01-11.18,15.79-17.48,23.22-7,8.24-12.63,17.64-18.86,26.54-5.39,7.69-10.44,15.59-16.14,23.07-4.27,5.61-9.31,10.98-11.53,17.69-1.15,3.48-4.37,3.6-5.87,6.21-5.43,9.41-11.89,18.17-18.49,26.79-1.02,1.33-.96,2.28-.24,3.5-2.02.19-2.55,2.04-3.44,3.33-9.23,13.37-18.44,26.76-27.55,40.21-26.1,38.54-51.69,77.42-76.38,116.88-1.67,2.68-2.93,2.8-5.49,1.54-9.84-4.87-19.7-9.71-29.7-14.24-3.66-1.66-4.07-3.11-2.01-6.59,16.85-28.45,34.33-56.5,52.14-84.36,13.06-20.42,26.33-40.71,39.6-60.99,6.06-9.26,12.37-18.35,18.53-27.54.99-1.47,2.55-2.74,2.08-4.85,5.65-4.16,8.44-10.56,12.33-16.06,14.19-20.05,28.17-40.25,42.72-60.05,7.45-10.13,14.86-20.34,22.22-30.55,10.95-15.19,22.72-29.79,34.41-44.43,13.24-16.58,26.53-33.13,40.31-49.26,6.41-7.5,13.12-14.81,19.52-22.3,6.32-7.38,12.32-15.11,18.67-22.51,10.59-12.34,21.35-24.54,32.05-36.78,7.94-9.08,15.85-18.19,23.85-27.22,11.98-13.53,23.86-27.15,36.07-40.46,27.07-29.53,54.2-59.01,82.3-87.58,15.85-16.11,31.62-32.27,47.83-48.02,14.15-13.76,28.29-27.56,42.76-40.97,20.54-19.04,41.59-37.53,63.01-55.59,22.36-18.85,45.07-37.26,68.2-55.16,19.16-14.83,37.88-30.27,57.43-44.58,22.91-16.78,45.3-34.25,68.16-51.09,21.63-15.93,43.03-32.19,64.54-48.28.77-.58,1.72-.92,2.59-1.37.13.15.25.3.37.45Z"/><path class="cls-3" d="m775.94,667.06c-1.53-10.13-1.68-20.35-1.85-30.57,2.1,2.31,1.05,5.19,1.22,7.77.49,7.58,1.36,15.17.63,22.79Z"/><path class="cls-3" d="m1331.98,363.09c-4.71,1.42-9.48,1.08-14.27.57,4.72-1.19,9.5-.73,14.27-.57Z"/><path class="cls-3" d="m1371.64,925.54c3.13-.61,6.26-.96,9.35.22-3.14,1-6.26.81-9.35-.22Z"/><path class="cls-3" d="m1033.94,849.59c3.72-.76,7.43-1.07,11.08.34-3.71.37-7.41.51-11.08-.34Z"/><path class="cls-3" d="m386.37,1140.93c1.14,3.71.61,7.41-.09,11.11-.72-3.71-.54-7.41.09-11.11Z"/><path class="cls-3" d="m675.97,1449.57c2.73-1.48,5.52-.83,8.3-.23-2.74,1.02-5.51,1.02-8.3.23Z"/><path class="cls-3" d="m1060.74,850.42c2.47-.68,4.92-.84,7.31.3-2.47.6-4.9.49-7.31-.3Z"/><path class="cls-3" d="m1364.95,924.05c1.09-.18,2.28-.77,2.96.73-1.49,1.81-2.09-.02-2.96-.73Z"/><path class="cls-3" d="m683.7,1072.77c.46,2.05,1.02,4.13-1.58,5.26.53-1.75,1.05-3.51,1.58-5.26Z"/><path class="cls-3" d="m1368.02,694.41c-1.05,1.01-2.08,2.84-3.21.08,1.06-.57,2.13-.53,3.21-.08Z"/><path class="cls-3" d="m1320.01,695.37c-1.39.99-2.84.85-4.33.26,1.4-.8,2.85-.8,4.33-.26Z"/><path class="cls-3" d="m1416.01,693.45c-1.43.98-2.88.74-4.35.11,1.43-.74,2.89-.62,4.35-.11Z"/><path class="cls-3" d="m769.86,637.82c-.64,1.21-1.67,1.41-2.89,1.14.75-.91,1.73-1.27,2.89-1.14Z"/><path class="cls-3" d="m683.25,1061.95c1.04.98.95,2.1.42,3.28-.7-1.02-.89-2.11-.42-3.28Z"/><path class="cls-3" d="m1424,693.2c-.64.79-1.33,1-2.1.19.7-.06,1.4-.12,2.1-.19Z"/><path class="cls-3" d="m386.72,1133.74c.45.8.51,1.58-.17,2.3-.58-.81-.52-1.58.17-2.3Z"/><path class="cls-3" d="m670.96,1449.12c.78-.39,1.5-.34,2.14.3-.8.5-1.48.18-2.14-.3Z"/><path class="cls-3" d="m1448.1,692.8c-.74.04-1.48.09-2.22.13.71-.6,1.44-.76,2.22-.13Z"/><path class="cls-3" d="m772.71,636.69c-.4,1.01-1.12,1.19-2.06.77.52-.7,1.22-.92,2.06-.77Z"/><path class="cls-3" d="m1468,362.15c-.34.48-.7.59-1.12.08.37-.03.74-.06,1.12-.08Z"/><path class="cls-3" d="m1068.93,851.06c.38.25.75.5,1.13.75-.71.25-1.06-.04-1.13-.75Z"/><path class="cls-3" d="m1017.12,850.89c-.3-.16-.6-.32-.9-.49.2-.15.39-.3.59-.45.1.31.21.62.31.94Z"/><path class="cls-3" d="m573.82,783.84c.34.48.3.91-.19,1.27-.44-.5-.31-.91.19-1.27Z"/><path class="cls-3" d="m1329.03,695.15c-.34.44-.7.65-1.14.13.38-.04.76-.09,1.14-.13Z"/><path class="cls-3" d="m1472.01,692.98c-.41-.04-.82-.09-1.22-.13.48-.63.87-.43,1.22.13Z"/><path class="cls-3" d="m386.29,1158.93c.47.41.58.85.15,1.36-.05-.45-.1-.9-.15-1.36Z"/><path class="cls-3" d="m386.93,1166.87c.02.38.05.76.07,1.13-.12-.26-.26-.52-.33-.79-.02-.09.17-.22.26-.34Z"/><path class="cls-3" d="m1433.01,362.29c-.31.6-.67.76-1.12.13.37-.04.75-.09,1.12-.13Z"/><path class="cls-3" d="m1464.02,692.48c-.39.64-.77.63-1.14-.02.38,0,.76.01,1.14.02Z"/><path class="cls-2" d="m863.8,1082.63c-10.44-.77-20.5-.24-29.23,6.8-2.47,2-5.72,2.94-8.93,3.9-4.34,1.31-8.25.8-10.75-2.38-2.52-3.21-2.44-7.37-1.02-11.61,2.59-7.7,8.01-13.12,13.47-18.61,11.01-11.05,24.74-17.56,39.06-22.88,4.55-1.69,9.64-2.18,14.54-2.6,18.47-1.6,36.95-2.88,55.52-2.31,19.45.6,38.81,2.49,57.57,7.47,19.53,5.18,38.58,12.05,52.83,27.65,6.08,6.66,11.33,13.83,14.2,22.56,1.51,4.59,1.06,9.27.81,13.84-.18,3.31-3.16,5.42-6.04,6.84-2.47,1.21-5.2,1.91-7.81,2.84-.82-.26-1.64-.46-2.37.23-6.11.73-12.24.49-18.36.14-1.39-.84-2.86-.89-4.37-.38-14.45-1.06-28.42-4.77-42.58-7.49-11.24-2.16-22.45-4.71-33.56-7.19-13.6-3.03-27.16-6.78-40.82-9.81-13.17-2.92-26.37-5.88-39.9-6.78-.71-.54-1.46-.68-2.27-.22Z"/><path class="cls-2" d="m1179.68,815.53c-1.15.05-2.31.1-3.46.16-.51-.63-.99-.61-1.44.07-8.42.42-16.88,1.54-25.25,1.09-11.33-.61-22.76-.51-33.95-2.97-5.3-1.17-9.93-3.16-13.72-7.44-2.56-2.9-2.57-5.42-1.25-8.51,4.27-10.03,12.22-16.88,19.97-24.12,10.34-9.67,23.63-9.63,36.07-12.87,14.3-3.73,29.27-3.79,43.38-8.8,4.78-1.7,10.63-.39,16.04-.88,16.63-1.49,33.24-3.64,50.01-2.92,13.57.58,27.05,1.7,40.05,5.99,6.36,2.1,11.97,5.46,17.2,9.72,4.51,3.68,4.45,8.8,5.56,13.61.22.95-.55,1.6-1.23,2.41-6.35,7.47-14.42,11.91-23.57,15.27-14.13,5.18-28.71,8.59-43.4,11.19-10.1,1.78-20.3,3.32-30.51,4.66-11.37,1.5-22.85,1.94-34.19,3.73-3.9.61-7.97.21-11.96.28-.36.06-.73.11-1.09.17-.63.01-1.26.03-1.89.04-.5-.37-.95-.3-1.35.15Z"/><path class="cls-2" d="m969.68,688.25c-.04,4.84-.08,9.68-.11,14.52-.25.7-.51,1.41-.76,2.11.35,7.26-9.73,20.28-19.28,19.98-4.07-.13-7.04-3.43-9.45-6.69-5.38-7.28-8.31-15.7-11.04-24.19-4.18-13.01-6.01-26.56-8.81-39.88-1.84-8.76-2.21-17.83-3.2-26.77-1.35-12.21-2.75-24.41-3.91-36.64-.37-3.9-.06-7.86.83-12.2,2.94,4.09,5.96,8.12,8.82,12.27,16.11,23.28,30.75,47.36,40.82,73.98,2.22,5.88,3.03,12.07,4.36,18.14.26,1.18.64,2.17,1.32,3.09-.39.85-.35,1.63.42,2.28Z"/><path class="cls-2" d="m482.4,1095.79c8.5,8.9,15.62,18.04,22.62,27.27,9.86,12.99,18.48,26.74,25.31,41.59,3.77,8.2,6.03,17.01,7.21,25.7.81,5.99-.09,12.96-4.57,18.49-4.02,4.96-10.69,4.89-15.84-.72-9.18-10-14.84-22.09-20.03-34.42-1.95-4.63-3.45-9.44-5.58-14.03-1.76-3.81-1.96-8.2-2.99-12.29-2.47-9.82-3.93-19.92-5.39-29.97-.99-6.84-1.77-13.75-.73-21.63Z"/><path class="cls-3" d="m1279.84,575.89c.08-.15.12-.33.24-.43,1.32-1.17,2.18-2.99,4.25-3.03.19,0,.62.78.55,1.12-.53,2.59-2.78,2.4-4.67,2.8-.12-.15-.24-.3-.37-.45Z"/><path class="cls-3" d="m1291.08,568.15c-1.15,1.59-2.36,3.12-5.37,3.97,1.24-2.83,2.65-4.08,5.09-4.25,0,0,.28.28.28.28Z"/><path class="cls-3" d="m1022.92,1114.12c1.51-.51,2.98-.46,4.37.38-1.52.65-3,.72-4.37-.38Z"/><path class="cls-3" d="m1293.02,566.09c.09,1.38-.73,1.91-1.95,2.06,0,0-.28-.27-.28-.27.21-1.2.98-1.76,2.15-1.87l.08.09Z"/><path class="cls-3" d="m968.81,704.88c.25-.7.51-1.41.76-2.11.51.98.34,1.71-.76,2.11Z"/><path class="cls-3" d="m1045.65,1114.36c.73-.68,1.55-.48,2.37-.23-.73.73-1.51.88-2.37.23Z"/><path class="cls-3" d="m863.8,1082.63c.81-.46,1.56-.32,2.27.22-.8.29-1.56.28-2.27-.22Z"/><path class="cls-3" d="m969.68,688.25c-.77-.64-.8-1.42-.42-2.28.84.63.79,1.42.42,2.28Z"/><path class="cls-3" d="m1179.68,815.53c.41-.45.86-.52,1.35-.15-.4.52-.85.57-1.35.15Z"/><path class="cls-3" d="m1182.93,815.34c.36-.06.73-.11,1.09-.17-.29.53-.59.95-1.09.17Z"/><path class="cls-3" d="m1174.78,815.75c.45-.67.93-.7,1.44-.07-.48.02-.96.04-1.44.07Z"/><path class="cls-3" d="m1292.94,566.01l.62-.42c-.18.17-.36.34-.54.5,0,0-.08-.08-.08-.08Z"/></svg>