<?xml version="1.0" encoding="utf-8"?>
<!-- Generator: Adobe Illustrator 27.4.0, SVG Export Plug-In . SVG Version: 6.00 Build 0)  -->
<svg version="1.1" id="Layer_1" xmlns="http://www.w3.org/2000/svg" xmlns:xlink="http://www.w3.org/1999/xlink" x="0px" y="0px"
	 viewBox="0 0 1920 1920" style="enable-background:new 0 0 1920 1920;" xml:space="preserve">
<style type="text/css">
	.st0{fill:#00A705;}
	.st1{fill:#4FDB67;}
</style>
<path class="st0" d="M1329,695.2c11.9-0.2,23.8-0.5,35.8-0.7c1.1,2.8,2.2,0.9,3.2-0.1c14.6-0.3,29.1-0.6,43.6-0.8
	c1.5,0.6,2.9,0.9,4.3-0.1c2,0,3.9,0,5.9-0.1c0.8,0.8,1.5,0.6,2.1-0.2c7.3-0.1,14.6-0.2,21.9-0.3c0.7,0,1.5-0.1,2.2-0.1
	c4.9-0.1,9.8-0.2,14.8-0.3c0.4,0.6,0.8,0.7,1.1,0c2.2,0.1,4.5,0.2,6.8,0.4c0.4,0,0.8,0.1,1.2,0.1c9.1,2.2,11.7,5.9,12.1,14.8
	c0.4,8.6-2.4,16.3-5.4,24.1c-3.7,9.8-6.8,19.8-10.4,29.6c-5.7,15.7-12,31.1-17.2,46.9c-6.7,20.1-13.7,40.1-21.2,59.9
	c-4.9,13-8.3,26.7-16.2,38.4c-7.8,11.7-18.7,18-32.7,19.1c-3.1-1.2-6.2-0.8-9.3-0.2c-1.3-0.2-2.6,0.2-3.7-0.8
	c-0.7-1.5-1.9-0.9-3-0.7c-10.8-0.5-20.5-4.5-30.2-8.7c-28.3-12-56.9-23.2-86.2-32.3c-18-5.6-36.4-9.4-54.6-14.2
	c-9.2-2.4-18.6-4-28-5.9c-10.7-2.2-21.5-3.5-32.3-5.1c-6.7-1-13.6-0.8-20.1-3.5c-2.3-1-5.3-0.4-7.9-0.4c-8.2-0.1-16.4-0.2-24.4-2.7
	c-3.7-1.2-7.4,1.5-11.2,0.6c-0.4-0.2-0.8-0.5-1.1-0.8c-0.3-0.2-0.6-0.3-0.9-0.3c-2.4-1.1-4.8-1-7.3-0.3c-5.2-0.2-10.5-0.3-15.7-0.5
	c-3.7-1.4-7.4-1.1-11.1-0.3c-5.7,0.1-11.4,0.2-17.1,0.4c-0.2,0.2-0.4,0.3-0.6,0.5c0.3,0.2,0.6,0.3,0.9,0.5c11.6,4.7,23.3,9.3,35,14
	c17.8,7.1,35.7,14.2,53.6,21.4c14.9,6,29.8,12,44.6,18c11.2,4.5,22.4,9.1,33.6,13.6c21.7,8.8,43.4,17.5,65.2,26.2
	c18.2,7.3,36.5,14.3,54.6,22c8.5,3.6,17.3,6.2,25.3,11.2c9.5,5.8,8.3,19.5,2.8,26.9c-6,8-12.8,15.2-19.4,22.5
	c-10.5,11.6-20.9,23.1-31.4,34.7c-13.3,14.6-26.7,29.2-40,43.9c-9.4,10.3-18.7,20.7-28.1,31.1c-13.8,15.2-27.6,30.3-41.3,45.5
	c-7.7,8.5-15.4,17.1-23.2,25.6c-15.2,16.8-30.5,33.6-45.8,50.4c-10,11-20,22.1-30.1,33c-6.2,6.8-13.3,12.2-22.6,14.5
	c-4.5,1.1-8.3,0.1-12.2-1.3c-10.6-3.7-19.3-10.8-29-16c-11.9-6.5-23.3-13.8-35.4-19.7c-19.6-9.5-39.4-18.6-59.8-26.4
	c-9.6-3.7-19.3-7.2-28.9-10.8c-9.2-3.4-19-5.9-28.6-8.5c-20.3-5.5-41-9.3-61.7-13.5c-7-1.4-14.1-2.1-21-3.4
	c-5.5-1.1-11-1.4-16.5-1.6c-5.8-0.2-10.8,2-13.6,7.6c-3.1,6-2.5,11.5,0.8,17.5c6.2,11.5,17.2,13.8,28.4,16.5
	c9.6,2.2,19.1,5.1,28.5,7.8c16.1,4.6,30.7,11.7,44.9,20c12.2,7.1,23.3,15.8,34.1,25.3c23.3,20.4,41.3,44.7,54.5,72.6
	c3.5,7.5,6.8,15.1,9.2,23.1c0.8,2.8,0.9,4.6-2.6,5.2c-10.4,1.6-20.5,4.6-30.4,8c-7.6,2.6-15,6.2-22.4,9.4
	c-14.8,6.6-29.8,13.4-45.6,16.7c-21.7,4.5-42.5,2.4-58.9-15.3c-10.7-11.5-18.5-24.7-24.4-39.2c-7.1-17.6-12.5-35.8-23.4-51.8
	c-9.2-13.5-19.9-25.2-36.1-30.2c-4.5-1.4-9.3-1.8-14.2-2c-3.4-0.1-3.9,1.5-3.4,4.3c1,5.3,1.9,10.6,2.8,15.9c0.5,2.8-0.5,5.5,0.5,8.7
	c1.9,6,2.5,12.6,3.1,18.9c1.2,12.3,4,24.3,5.3,36.6c0.9,8.2,2.3,16.7,3.7,25c1.5,8.6,3.5,17.2,3.5,26c0,11.2-5,16.3-16.8,19
	c-2.8-0.6-5.6-1.2-8.3,0.2c-1-0.1-1.9-0.1-2.9-0.2c-0.6-0.6-1.4-0.7-2.1-0.3c-8.3-0.4-16.6-2.3-24.4-4.5c-7.7-2.2-15.5-2.8-23.1-5.2
	c-8-2.5-16.6-3.5-24.3-6.6c-7.3-2.9-14.8-5.9-22-9.2c-7.7-3.5-15.2-7.1-22.2-11.6c-7.8-5.1-15.4-10.3-21.8-17.2
	c-0.7-1.2-0.8-2.2,0.2-3.5c6.6-8.6,13.1-17.4,18.5-26.8c1.5-2.6,4.7-2.7,5.9-6.2c2.2-6.7,7.3-12.1,11.5-17.7
	c5.7-7.5,10.8-15.4,16.1-23.1c6.2-8.9,11.9-18.3,18.9-26.5c6.3-7.4,12.2-15.2,17.5-23.2c9.3-14.1,19.6-27.4,29.2-41.2
	c8.9-12.8,18-25.5,27.9-37.7c9.9-12.1,18.9-25,28.1-37.8c6.5-9,13.5-17.7,20-26.8c8.7-12.2,18.5-23.7,27-36.1
	c7.2-10.4,15.8-19.8,23.7-29.8c9.2-11.7,17.9-23.7,28.1-34.6c8.5-9.1,15.9-19.2,24.1-28.5c9.5-10.8,18.9-21.8,28.8-32.2
	c8.5-9,16.5-18.6,25.2-27.3c9.9-9.9,19.1-20.5,29.4-30c10.5-9.8,19-21.7,29.5-31.4c13.4-12.4,26-25.5,39.4-37.9
	c18.7-17.3,36.6-35.5,55.6-52.5c32-28.8,63.8-57.8,96.6-85.7c22.3-19,44.4-38,66.9-56.7c25.3-21,50.7-42,76.7-62.1
	c1-0.8,2.2-1.6,2.3-3.1c1.9-0.4,4.1-0.2,4.7-2.8c0.1-0.3-0.4-1.1-0.6-1.1c-2.1,0-2.9,1.9-4.2,3c-0.1,0.1-0.2,0.3-0.2,0.4
	c-0.9,0.5-1.8,0.8-2.6,1.4c-21.5,16.1-42.9,32.3-64.5,48.3c-22.9,16.8-45.2,34.3-68.2,51.1c-19.5,14.3-38.3,29.8-57.4,44.6
	c-23.1,17.9-45.8,36.3-68.2,55.2c-21.4,18.1-42.5,36.5-63,55.6c-14.5,13.4-28.6,27.2-42.8,41c-16.2,15.8-32,31.9-47.8,48
	c-28.1,28.6-55.2,58-82.3,87.6c-12.2,13.3-24.1,26.9-36.1,40.5c-8,9-15.9,18.1-23.8,27.2c-10.7,12.2-21.5,24.4-32,36.8
	c-6.3,7.4-12.3,15.1-18.7,22.5c-6.4,7.5-13.1,14.8-19.5,22.3c-13.8,16.1-27.1,32.7-40.3,49.3c-11.7,14.6-23.5,29.2-34.4,44.4
	c-7.4,10.2-14.8,20.4-22.2,30.6c-14.6,19.8-28.5,40-42.7,60.1c-3.9,5.5-6.7,11.9-12.3,16.1c-6.2-4-12.2-8.2-17.9-12.8
	c-25.1-20.2-45.9-44.1-62.3-71.9c-9.6-16.3-17-33.5-23-51.4c-5.8-17.6-9.6-35.5-10.7-54c0-0.4,0-0.8-0.1-1.1
	c-0.2-2.2-0.3-4.4-0.5-6.6c0.4-0.5,0.3-0.9-0.1-1.4c0-2.3,0-4.6,0-6.9c0.7-3.7,1.2-7.4,0.1-11.1c0.1-1.6,0.1-3.3,0.2-4.9
	c0.7-0.7,0.6-1.5,0.2-2.3c0.7-13.4,2.6-26.6,5.5-39.8c4.9-21.7,12.2-42.5,22.5-61.9c14.7-27.6,32.8-52.9,57.3-73
	c7.6-6.2,15.1-12.4,23.4-17.8c18.8-12.1,32.9-4.4,43.5,6.1c11.7,11.7,23.2,23.7,34.8,35.5c14.7,15.1,29.5,30.2,44.2,45.4
	c12.2,12.5,24.3,25,36.5,37.5c7.2,7.4,14.5,14.6,21.5,22.2c2.2,2.4,3.2,1.8,3.8-0.7c0.7-3.1,4.2-5.5,2.2-9.3c2.6-1.1,2-3.2,1.6-5.3
	c0-2.5,0-5,0-7.5c0.5-1.2,0.6-2.3-0.4-3.3c-2.5-3.3-2.1-7.5-2.9-11.1c-2.1-10.1-6.8-18.9-11.7-27.6c-8.9-15.7-18.6-31-27.3-46.8
	c-7-12.7-13.2-25.9-19.5-39c-5.4-11.2-11.3-22.2-15.6-33.9c-6.7-18.2-13.9-36.2-19.8-54.7c-4.6-14.3-9.1-28.7-12-43.5
	c-1.3-6.6-1.7-13.5-0.8-20.4c0.5-0.4,0.5-0.8,0.2-1.3c1.1-18.1,10.3-32,22.6-44.3c11.1-11.1,24-20,36.9-28.8
	c42-28.8,86.5-52.6,133.6-71.8c1.2,0.3,2.3,0.1,2.9-1.1c0.2-0.2,0.5-0.3,0.8-0.3c0.9,0.4,1.7,0.2,2.1-0.8c0.5-0.1,0.9-0.1,1.4-0.2
	c0.2,10.2,0.3,20.4,1.8,30.6c1.2,20,3.4,39.8,8.3,59.2c6.3,25.2,15.2,49.4,32.3,69.7c10.2,12,21.6,22.6,36.9,28.1
	c4.7,1.7,13-1.6,14.3-6.2c1.8-6.2,2.5-12.4,1.6-19.1c-2.3-17.9-6.8-35.3-11.7-52.5c-7.1-24.6-14.3-49.2-24.2-73
	c-8.4-20-16.3-40.1-26.2-59.3c-6.6-12.9-11.9-25.9-11.2-40.7c0.5-8.8,4.8-15.6,11.3-21.2c6.3-5.3,13.8-8.6,21.2-12
	c34.8-16.2,70-31.7,105.4-46.4c17.3-7.2,34.6-14.5,52.3-20.8c7.6-2.7,15.2-6,22.8-8.9c13-5,25.6-10.8,39.2-14.4
	c8.8-2.4,17.1-6.5,25.6-9.6c9.5-3.5,19.1-6.7,28.6-10.3c4.3-1.6,5.9,0.2,6.5,4.1c1.5,10.1,4.6,19.8,6.8,29.6
	c2.1,9.2,4.8,18.2,7.5,27.1c2.1,7.1,4.8,14.2,7.6,21.2c2.2,5.7,4,11.6,6.1,17.3c1,2.9,2.2,3.7,4.4,0.6c7.6-10.6,12-22.6,14.5-35.2
	c3.1-15.5,4.5-31.3,8.8-46.5c10.7-38.2,37.7-59.8,73.9-71.5c14.5-4.7,29.4-7.7,44.6-9.4c11.5-1.3,22.9-2.7,34.5-3.2
	c4.8,0.5,9.6,0.9,14.3-0.6c33.3-0.2,66.6-0.5,99.9-0.7c0.4,0.6,0.8,0.5,1.1-0.1c11.3,0,22.6,0,33.9-0.1c0.4,0.5,0.8,0.4,1.1-0.1
	c20.7-0.1,41.3-0.2,62-0.3c2.7,0,3.9,0.3,3,3.6c-4.1,16.2-8.4,32.3-11.9,48.7c-2.7,12.6-6.4,24.9-8.7,37.5
	c-2.1,11.2-5.2,22.1-7.7,33.2c-2.2,10-4.8,20-7.1,30c-3,13-5.8,26-8.9,39c-4.3,18.1-8.6,36.2-13.4,54.2
	c-2.9,10.9-10.1,18.7-20.5,22.7c-22.4,8.7-44.9,16.9-67.4,25.2c-25,9.2-50.1,18.4-75.1,27.5c-10.6,3.9-21.2,7.8-31.6,12.2
	c11.7,0,23.4,0,35.1,0c1.5,0.6,2.9,0.7,4.3-0.3c2.6,0,5.2-0.1,7.9-0.1C1328.3,695.8,1328.7,695.6,1329,695.2L1329,695.2z
	 M1292.9,566c-1.2,0.1-1.9,0.7-2.2,1.9c-2.4,0.2-3.8,1.4-5.1,4.2c3-0.8,4.2-2.4,5.4-4C1292.3,568,1293.1,567.5,1292.9,566
	c0.3-0.1,0.4-0.3,0.6-0.4L1292.9,566z M968.8,704.9c1.1-0.4,1.3-1.1,0.8-2.1c0-4.8,0.1-9.7,0.1-14.5c0.4-0.8,0.4-1.6-0.4-2.3
	c-0.7-0.9-1.1-1.9-1.3-3.1c-1.3-6.1-2.1-12.3-4.4-18.1c-10.1-26.6-24.7-50.7-40.8-74c-2.9-4.1-5.9-8.2-8.8-12.3
	c-0.9,4.3-1.2,8.3-0.8,12.2c1.2,12.2,2.6,24.4,3.9,36.6c1,8.9,1.3,18,3.2,26.8c2.8,13.3,4.6,26.9,8.8,39.9c2.7,8.5,5.7,16.9,11,24.2
	c2.4,3.3,5.4,6.6,9.5,6.7C959.1,725.1,969.2,712.1,968.8,704.9L968.8,704.9z M1181,815.4c0.6,0,1.3,0,1.9,0c0.5,0.8,0.8,0.4,1.1-0.2
	c4-0.1,8.1,0.3,12-0.3c11.3-1.8,22.8-2.2,34.2-3.7c10.2-1.3,20.4-2.9,30.5-4.7c14.7-2.6,29.3-6,43.4-11.2
	c9.2-3.4,17.2-7.8,23.6-15.3c0.7-0.8,1.4-1.5,1.2-2.4c-1.1-4.8-1.1-9.9-5.6-13.6c-5.2-4.3-10.8-7.6-17.2-9.7
	c-13-4.3-26.5-5.4-40.1-6c-16.8-0.7-33.4,1.4-50,2.9c-5.4,0.5-11.3-0.8-16,0.9c-14.1,5-29.1,5.1-43.4,8.8
	c-12.4,3.2-25.7,3.2-36.1,12.9c-7.8,7.2-15.7,14.1-20,24.1c-1.3,3.1-1.3,5.6,1.2,8.5c3.8,4.3,8.4,6.3,13.7,7.4
	c11.2,2.5,22.6,2.4,33.9,3c8.4,0.5,16.8-0.7,25.2-1.1c0.5,0,1,0,1.4-0.1c1.2,0,2.3-0.1,3.5-0.2
	C1180.2,815.9,1180.6,815.9,1181,815.4L1181,815.4z M1027.3,1114.5c6.1,0.3,12.2,0.6,18.4-0.1c0.9,0.7,1.6,0.5,2.4-0.2
	c2.6-0.9,5.3-1.6,7.8-2.8c2.9-1.4,5.9-3.5,6-6.8c0.2-4.6,0.7-9.2-0.8-13.8c-2.9-8.7-8.1-15.9-14.2-22.6
	c-14.2-15.6-33.3-22.5-52.8-27.7c-18.8-5-38.1-6.9-57.6-7.5c-18.6-0.6-37,0.7-55.5,2.3c-4.9,0.4-10,0.9-14.5,2.6
	c-14.3,5.3-28,11.8-39.1,22.9c-5.5,5.5-10.9,10.9-13.5,18.6c-1.4,4.2-1.5,8.4,1,11.6c2.5,3.2,6.4,3.7,10.8,2.4
	c3.2-1,6.5-1.9,8.9-3.9c8.7-7,18.8-7.6,29.2-6.8c0.7,0.5,1.5,0.5,2.3,0.2c13.5,0.9,26.7,3.9,39.9,6.8c13.7,3,27.2,6.8,40.8,9.8
	c11.1,2.5,22.3,5,33.6,7.2c14.2,2.7,28.1,6.4,42.6,7.5C1024.3,1115.2,1025.8,1115.1,1027.3,1114.5L1027.3,1114.5z M482.4,1095.8
	c-1,7.9-0.3,14.8,0.7,21.6c1.5,10.1,2.9,20.2,5.4,30c1,4.1,1.2,8.5,3,12.3c2.1,4.6,3.6,9.4,5.6,14c5.2,12.3,10.9,24.4,20,34.4
	c5.2,5.6,11.8,5.7,15.8,0.7c4.5-5.5,5.4-12.5,4.6-18.5c-1.2-8.7-3.4-17.5-7.2-25.7c-6.8-14.8-15.5-28.6-25.3-41.6
	C498,1113.8,490.9,1104.7,482.4,1095.8L482.4,1095.8z"/>
<path class="st1" d="M1280.2,576.3c-0.2,1.5-1.3,2.3-2.3,3.1c-26,20.1-51.4,41-76.7,62.1c-22.5,18.7-44.7,37.8-66.9,56.7
	c-32.8,27.9-64.6,57-96.6,85.7c-19,17-36.9,35.2-55.6,52.5c-13.4,12.3-26,25.5-39.4,37.9c-10.5,9.8-19,21.7-29.5,31.4
	c-10.3,9.6-19.5,20.1-29.4,30c-8.7,8.7-16.7,18.3-25.2,27.3c-9.9,10.5-19.2,21.5-28.8,32.2c-8.2,9.3-15.7,19.4-24.1,28.5
	c-10.2,10.9-18.9,23-28.1,34.6c-7.9,10-16.5,19.4-23.7,29.8c-8.6,12.4-18.3,23.9-27,36.1c-6.5,9.1-13.5,17.7-20,26.8
	c-9.2,12.7-18.2,25.6-28.1,37.8c-9.9,12.1-19,24.9-27.9,37.7c-9.6,13.8-19.9,27.2-29.2,41.2c-5.3,8-11.2,15.8-17.5,23.2
	c-7,8.2-12.6,17.6-18.9,26.5c-5.4,7.7-10.4,15.6-16.1,23.1c-4.3,5.6-9.3,11-11.5,17.7c-1.2,3.5-4.4,3.6-5.9,6.2
	c-5.4,9.4-11.9,18.2-18.5,26.8c-1,1.3-1,2.3-0.2,3.5c-2,0.2-2.5,2-3.4,3.3c-9.2,13.4-18.4,26.8-27.5,40.2
	c-26.1,38.5-51.7,77.4-76.4,116.9c-1.7,2.7-2.9,2.8-5.5,1.5c-9.8-4.9-19.7-9.7-29.7-14.2c-3.7-1.7-4.1-3.1-2-6.6
	c16.9-28.4,34.3-56.5,52.1-84.4c13.1-20.4,26.3-40.7,39.6-61c6.1-9.3,12.4-18.3,18.5-27.5c1-1.5,2.5-2.7,2.1-4.8
	c5.6-4.2,8.4-10.6,12.3-16.1c14.2-20.1,28.2-40.2,42.7-60.1c7.5-10.1,14.9-20.3,22.2-30.6c11-15.2,22.7-29.8,34.4-44.4
	c13.2-16.6,26.5-33.1,40.3-49.3c6.4-7.5,13.1-14.8,19.5-22.3c6.3-7.4,12.3-15.1,18.7-22.5c10.6-12.3,21.3-24.5,32-36.8
	c7.9-9.1,15.8-18.2,23.8-27.2c12-13.5,23.9-27.2,36.1-40.5c27.1-29.5,54.2-59,82.3-87.6c15.8-16.1,31.6-32.3,47.8-48
	c14.2-13.8,28.3-27.6,42.8-41c20.5-19,41.6-37.5,63-55.6c22.4-18.8,45.1-37.3,68.2-55.2c19.2-14.8,37.9-30.3,57.4-44.6
	c22.9-16.8,45.3-34.2,68.2-51.1c21.6-15.9,43-32.2,64.5-48.3c0.8-0.6,1.7-0.9,2.6-1.4C1280,576,1280.1,576.2,1280.2,576.3
	L1280.2,576.3z"/>
<path class="st1" d="M775.9,667.1c-1.5-10.1-1.7-20.3-1.8-30.6c2.1,2.3,1,5.2,1.2,7.8C775.8,651.8,776.7,659.4,775.9,667.1
	L775.9,667.1z"/>
<path class="st1" d="M1332,363.1c-4.7,1.4-9.5,1.1-14.3,0.6C1322.4,362.5,1327.2,362.9,1332,363.1z"/>
<path class="st1" d="M1371.6,925.5c3.1-0.6,6.3-1,9.3,0.2C1377.8,926.8,1374.7,926.6,1371.6,925.5z"/>
<path class="st1" d="M1033.9,849.6c3.7-0.8,7.4-1.1,11.1,0.3C1041.3,850.3,1037.6,850.4,1033.9,849.6z"/>
<path class="st1" d="M386.4,1140.9c1.1,3.7,0.6,7.4-0.1,11.1C385.6,1148.3,385.7,1144.6,386.4,1140.9z"/>
<path class="st1" d="M676,1449.6c2.7-1.5,5.5-0.8,8.3-0.2C681.5,1450.4,678.8,1450.4,676,1449.6z"/>
<path class="st1" d="M1060.7,850.4c2.5-0.7,4.9-0.8,7.3,0.3C1065.6,851.3,1063.2,851.2,1060.7,850.4z"/>
<path class="st1" d="M1364.9,924c1.1-0.2,2.3-0.8,3,0.7C1366.4,926.6,1365.8,924.8,1364.9,924z"/>
<path class="st1" d="M683.7,1072.8c0.5,2.1,1,4.1-1.6,5.3C682.7,1076.3,683.2,1074.5,683.7,1072.8z"/>
<path class="st1" d="M1368,694.4c-1.1,1-2.1,2.8-3.2,0.1C1365.9,693.9,1366.9,694,1368,694.4z"/>
<path class="st1" d="M1320,695.4c-1.4,1-2.8,0.8-4.3,0.3C1317.1,694.8,1318.5,694.8,1320,695.4z"/>
<path class="st1" d="M1416,693.5c-1.4,1-2.9,0.7-4.3,0.1C1413.1,692.8,1414.6,692.9,1416,693.5z"/>
<path class="st1" d="M769.9,637.8c-0.6,1.2-1.7,1.4-2.9,1.1C767.7,638.1,768.7,637.7,769.9,637.8z"/>
<path class="st1" d="M683.2,1061.9c1,1,1,2.1,0.4,3.3C683,1064.2,682.8,1063.1,683.2,1061.9z"/>
<path class="st1" d="M1424,693.2c-0.6,0.8-1.3,1-2.1,0.2C1422.6,693.3,1423.3,693.3,1424,693.2z"/>
<path class="st1" d="M386.7,1133.7c0.5,0.8,0.5,1.6-0.2,2.3C386,1135.2,386,1134.5,386.7,1133.7z"/>
<path class="st1" d="M671,1449.1c0.8-0.4,1.5-0.3,2.1,0.3C672.3,1449.9,671.6,1449.6,671,1449.1z"/>
<path class="st1" d="M1448.1,692.8c-0.7,0-1.5,0.1-2.2,0.1C1446.6,692.3,1447.3,692.2,1448.1,692.8z"/>
<path class="st1" d="M772.7,636.7c-0.4,1-1.1,1.2-2.1,0.8C771.2,636.8,771.9,636.5,772.7,636.7z"/>
<path class="st1" d="M1468,362.1c-0.3,0.5-0.7,0.6-1.1,0.1C1467.2,362.2,1467.6,362.2,1468,362.1z"/>
<path class="st1" d="M1068.9,851.1c0.4,0.2,0.8,0.5,1.1,0.8C1069.4,852.1,1069,851.8,1068.9,851.1z"/>
<path class="st1" d="M1017.1,850.9c-0.3-0.2-0.6-0.3-0.9-0.5c0.2-0.2,0.4-0.3,0.6-0.5C1016.9,850.3,1017,850.6,1017.1,850.9z"/>
<path class="st1" d="M573.8,783.8c0.3,0.5,0.3,0.9-0.2,1.3C573.2,784.6,573.3,784.2,573.8,783.8z"/>
<path class="st1" d="M1329,695.2c-0.3,0.4-0.7,0.7-1.1,0.1C1328.3,695.2,1328.7,695.2,1329,695.2z"/>
<path class="st1" d="M1472,693c-0.4,0-0.8-0.1-1.2-0.1C1471.3,692.2,1471.7,692.4,1472,693z"/>
<path class="st1" d="M386.3,1158.9c0.5,0.4,0.6,0.8,0.1,1.4C386.4,1159.8,386.3,1159.4,386.3,1158.9z"/>
<path class="st1" d="M386.9,1166.9c0,0.4,0,0.8,0.1,1.1c-0.1-0.3-0.3-0.5-0.3-0.8C386.7,1167.1,386.8,1167,386.9,1166.9
	L386.9,1166.9z"/>
<path class="st1" d="M1433,362.3c-0.3,0.6-0.7,0.8-1.1,0.1C1432.3,362.4,1432.6,362.3,1433,362.3z"/>
<path class="st1" d="M1464,692.5c-0.4,0.6-0.8,0.6-1.1,0C1463.3,692.5,1463.6,692.5,1464,692.5z"/>
<path class="st1" d="M1279.8,575.9c0.1-0.2,0.1-0.3,0.2-0.4c1.3-1.2,2.2-3,4.2-3c0.2,0,0.6,0.8,0.6,1.1c-0.5,2.6-2.8,2.4-4.7,2.8
	C1280.1,576.2,1280,576,1279.8,575.9L1279.8,575.9z"/>
<path class="st1" d="M1291.1,568.2c-1.2,1.6-2.4,3.1-5.4,4c1.2-2.8,2.7-4.1,5.1-4.2L1291.1,568.2z"/>
<path class="st1" d="M1022.9,1114.1c1.5-0.5,3-0.5,4.4,0.4C1025.8,1115.2,1024.3,1115.2,1022.9,1114.1L1022.9,1114.1z"/>
<path class="st1" d="M1293,566.1c0.1,1.4-0.7,1.9-1.9,2.1l-0.3-0.3C1291,566.7,1291.8,566.1,1293,566.1L1293,566.1L1293,566.1z"/>
<path class="st1" d="M968.8,704.9c0.2-0.7,0.5-1.4,0.8-2.1C970.1,703.8,969.9,704.5,968.8,704.9z"/>
<path class="st1" d="M1045.7,1114.4c0.7-0.7,1.6-0.5,2.4-0.2C1047.3,1114.9,1046.5,1115,1045.7,1114.4z"/>
<path class="st1" d="M863.8,1082.6c0.8-0.5,1.6-0.3,2.3,0.2C865.3,1083.1,864.5,1083.1,863.8,1082.6z"/>
<path class="st1" d="M969.7,688.2c-0.8-0.6-0.8-1.4-0.4-2.3C970.1,686.6,970,687.4,969.7,688.2z"/>
<path class="st1" d="M1179.7,815.5c0.4-0.5,0.9-0.5,1.3-0.2C1180.6,815.9,1180.2,816,1179.7,815.5z"/>
<path class="st1" d="M1182.9,815.3c0.4-0.1,0.7-0.1,1.1-0.2C1183.7,815.7,1183.4,816.1,1182.9,815.3z"/>
<path class="st1" d="M1174.8,815.8c0.4-0.7,0.9-0.7,1.4-0.1C1175.7,815.7,1175.3,815.7,1174.8,815.8z"/>
<path class="st1" d="M1292.9,566l0.6-0.4C1293.4,565.8,1293.2,565.9,1292.9,566L1292.9,566z"/>
</svg>
